<svg width="477" height="346" viewBox="0 0 477 346" fill="none" xmlns="http://www.w3.org/2000/svg">
<g opacity="0.8">
<path d="M64.2448 41.4346C64.1387 40.9039 64.0325 40.2669 64.0325 39.7362C64.0325 38.9931 63.9264 38.3562 63.8202 37.6132C63.7141 36.6578 63.5018 35.7024 63.2895 34.8532C62.6526 32.3056 61.6972 29.8641 60.4234 27.6349C58.725 24.6627 56.3896 22.0089 53.7358 19.992C50.4452 17.4444 46.7299 15.6398 42.59 14.7906C37.9193 13.8353 33.1425 14.1537 28.578 15.6398C26.1365 16.489 23.9073 17.6567 21.7843 19.1428C20.7228 19.8859 19.6613 20.7351 18.7059 21.5843C17.7505 22.5397 16.9013 23.495 16.0521 24.5565C8.93998 33.6856 8.62153 46.4237 15.3091 55.8712C16.0521 57.0389 16.9013 58.1004 17.8567 59.0557C18.8121 60.0111 19.7674 60.8603 20.8289 61.7095C22.8458 63.3018 25.075 64.5756 27.4103 65.531C39.2993 70.2016 52.7805 65.7433 59.6803 55.022C61.0603 52.899 62.228 50.4575 62.971 48.016C63.2895 47.0606 63.5018 46.2114 63.6079 45.2561C63.7141 44.6192 63.9264 43.8761 63.9264 43.2392C64.0325 42.6023 64.1387 41.9654 64.2448 41.4346C64.351 41.9654 64.351 42.6023 64.2448 43.133C64.2448 43.8761 64.1387 44.513 64.0325 45.2561C63.9264 46.2114 63.7141 47.1668 63.5018 48.1221C62.8649 50.6698 61.8034 53.2174 60.4234 55.4466C56.2835 62.2403 49.3836 66.9109 41.5284 68.1847C36.6455 69.0339 31.5502 68.5032 26.8796 66.6986C24.3319 65.7433 21.9966 64.3633 19.8736 62.771C18.8121 61.9218 17.7505 60.9665 16.7952 60.0111C15.8398 58.9496 14.9906 57.8881 14.1414 56.7204C7.13541 46.7422 7.45386 33.3671 14.9906 23.7073C15.8398 22.5397 16.7952 21.4782 17.8567 20.5228C18.9182 19.5674 19.9797 18.7182 21.1474 17.869C23.3766 16.2767 25.7119 15.1091 28.3657 14.2599C37.3885 11.2876 47.2606 13.0922 54.5851 19.0367C57.345 21.2659 59.5742 24.0258 61.3787 27.1042C62.6526 29.4395 63.6079 31.881 64.1387 34.5348C64.351 35.4901 64.4571 36.4455 64.5633 37.4009C64.6694 38.1439 64.6694 38.7808 64.6694 39.5239C64.351 40.2669 64.351 40.7977 64.2448 41.4346Z" fill="#EBEBEB"/>
<path d="M58.8311 24.4501C58.8311 24.5562 58.4065 24.9808 57.4512 25.6177L55.7527 26.8916C55.4343 27.1039 55.0097 27.4223 54.6912 27.6346L53.3113 28.3777C48.4283 31.1376 42.9084 32.5176 37.2824 32.4114L34.8409 32.3053L32.5056 31.9868C32.081 31.8807 31.7625 31.8807 31.3379 31.7745L30.2764 31.4561C29.5334 31.2438 28.8965 31.1376 28.1534 30.8192C25.8181 30.0761 23.4827 29.0146 21.3597 27.7408C17.7506 25.5116 15.946 23.4947 16.0521 23.3886C16.1583 23.2824 18.1752 24.8747 21.8905 26.7854C24.0135 27.8469 26.3488 28.8023 28.578 29.5453C29.2149 29.7576 29.8518 29.8638 30.5949 30.0761L31.6564 30.2884L32.7179 30.5007L34.9471 30.8192L37.2824 30.9253C42.6961 31.0315 48.0037 29.8638 52.7805 27.4223L54.1605 26.8916C54.5851 26.6793 55.0097 26.4669 55.3281 26.2546L57.2389 25.1931C58.1942 24.6624 58.725 24.3439 58.8311 24.4501Z" fill="#EBEBEB"/>
<path d="M15.3091 57.5696C15.2029 57.4634 15.7337 57.0388 16.6891 56.4019L18.4936 55.1281C18.8121 54.9158 19.2367 54.5973 19.5552 54.385L20.9351 53.642C25.8181 50.882 31.338 49.5021 36.964 49.6082L39.4055 49.7144L41.7408 50.139C42.1654 50.2451 42.4838 50.2451 42.9084 50.3513L43.97 50.6697C44.713 50.882 45.3499 50.9882 46.093 51.2005C48.4283 52.0497 50.7636 53.1112 52.8867 54.385C56.4958 56.6142 58.3004 58.6311 58.1942 58.7373C58.0881 58.8434 56.0712 57.2511 52.3559 55.3404C50.2329 54.2789 48.0037 53.3235 45.6684 52.5805C45.0315 52.3682 44.2884 52.262 43.6515 52.0497L42.59 51.8374L41.5285 51.6251L39.2993 51.3067L36.964 51.2005C31.5503 51.0943 26.2427 52.262 21.4659 54.7035L20.0859 55.3404C19.6613 55.5527 19.3429 55.765 18.9182 55.9773L17.0075 57.0388C15.946 57.3573 15.3091 57.5696 15.3091 57.5696Z" fill="#EBEBEB"/>
<path d="M64.2448 42.0716C64.2448 42.4962 52.0374 42.4962 37.0701 42.1777C22.1028 41.8593 9.89536 41.2224 9.89536 40.7977C9.89536 40.3731 22.1028 40.3731 37.0701 40.6916C52.0374 41.0101 64.2448 41.647 64.2448 42.0716Z" fill="#EBEBEB"/>
<path d="M35.7963 67.9722C35.3717 67.9722 35.3717 55.7648 35.6902 40.6913C36.0086 25.6179 36.6455 13.5166 37.0701 13.5166C37.4947 13.6228 37.4947 25.724 37.1763 40.7975C36.8578 55.871 36.2209 67.9722 35.7963 67.9722Z" fill="#EBEBEB"/>
<path d="M35.7963 67.9723C35.6902 68.0784 32.7179 66.0615 29.2149 61.497C27.1981 58.7371 25.6058 55.7649 24.332 52.6865C22.8459 48.7589 22.1028 44.619 22.209 40.4791C22.3151 36.3392 23.2705 32.1993 24.9689 28.3778C26.3489 25.2994 28.1534 22.4333 30.2765 19.7796C33.9918 15.3212 36.964 13.4105 37.0701 13.5166C37.1763 13.6228 34.4164 15.9581 31.1257 20.4165C29.2149 23.0703 27.5165 25.9363 26.2427 28.9086C24.6504 32.5177 23.8012 36.4453 23.6951 40.4791C23.5889 44.4067 24.2258 48.4404 25.6058 52.1557C26.6673 55.2341 28.1534 58.1002 30.0642 60.8601C33.2487 65.5308 35.9025 67.76 35.7963 67.9723Z" fill="#EBEBEB"/>
<path d="M37.707 13.6229C37.8132 13.5167 40.7854 15.5336 44.2884 20.0981C46.3053 22.7519 47.8976 25.7241 49.1714 28.9087C50.6575 32.8363 51.4006 36.9762 51.2944 41.1161C51.1883 45.256 50.2329 49.3959 48.5345 53.2173C47.1545 56.2957 45.3499 59.1618 43.2269 61.8156C39.5116 66.2739 36.5394 68.1847 36.4332 68.0785C36.3271 67.9723 38.9809 65.637 42.3777 61.1787C44.3946 58.5249 45.9868 55.6588 47.2607 52.6866C48.8529 49.0774 49.7021 45.1498 49.8083 41.1161C49.9144 37.1885 49.2775 33.1547 47.8976 29.4394C46.8361 26.361 45.2438 23.4949 43.4392 20.735C40.2547 16.0643 37.6009 13.729 37.707 13.6229Z" fill="#EBEBEB"/>
<path d="M476.537 249.173C476.43 248.642 476.324 248.005 476.324 247.474C476.324 246.731 476.218 246.094 476.112 245.351C476.006 244.396 475.794 243.44 475.581 242.591C474.944 240.044 473.989 237.602 472.715 235.373C471.017 232.401 468.681 229.747 466.028 227.73C462.737 225.182 459.022 223.378 454.882 222.529C450.211 221.573 445.434 221.892 440.87 223.378C438.428 224.227 436.199 225.395 434.076 226.881C433.015 227.624 431.953 228.473 430.998 229.322C430.042 230.278 429.193 231.233 428.344 232.295C421.232 241.424 420.913 254.162 427.601 263.609C428.344 264.777 429.193 265.838 430.148 266.794C431.104 267.749 432.059 268.598 433.121 269.448C435.138 271.04 437.367 272.314 439.702 273.269C451.591 277.94 465.072 273.481 471.972 262.76C473.352 260.637 474.52 258.195 475.263 255.754C475.581 254.799 475.794 253.949 475.9 252.994C476.006 252.357 476.218 251.614 476.218 250.977C476.324 250.34 476.43 249.703 476.537 249.173C476.643 249.703 476.643 250.34 476.537 250.871C476.537 251.614 476.43 252.251 476.324 252.994C476.218 253.949 476.006 254.905 475.794 255.86C475.157 258.408 474.095 260.955 472.715 263.185C468.575 269.978 461.675 274.649 453.82 275.923C448.937 276.772 443.842 276.241 439.171 274.437C436.624 273.481 434.288 272.101 432.165 270.509C431.104 269.66 430.042 268.704 429.087 267.749C428.132 266.688 427.282 265.626 426.433 264.458C419.427 254.48 419.746 241.105 427.282 231.445C428.132 230.278 429.087 229.216 430.148 228.261C431.21 227.305 432.271 226.456 433.439 225.607C435.668 224.015 438.004 222.847 440.657 221.998C449.68 219.026 459.552 220.83 466.877 226.775C469.637 229.004 471.866 231.764 473.67 234.842C474.944 237.178 475.9 239.619 476.43 242.273C476.643 243.228 476.749 244.184 476.855 245.139C476.961 245.882 476.961 246.519 476.961 247.262C476.749 248.005 476.643 248.536 476.537 249.173Z" fill="#EBEBEB"/>
<path d="M471.123 232.189C471.123 232.295 470.698 232.719 469.743 233.356L468.044 234.63C467.726 234.842 467.301 235.161 466.983 235.373L465.603 236.116C460.72 238.876 455.2 240.256 449.574 240.15L447.133 240.044L444.797 239.619C444.373 239.513 444.054 239.513 443.63 239.407L442.568 239.088C441.825 238.876 441.188 238.77 440.445 238.558C438.11 237.815 435.774 236.753 433.651 235.479C430.042 233.25 428.238 231.233 428.344 231.127C428.45 231.021 430.467 232.613 434.182 234.524C436.305 235.585 438.641 236.541 440.87 237.284C441.507 237.496 442.144 237.602 442.887 237.815L443.948 238.027L445.01 238.133L447.239 238.452L449.574 238.558C454.988 238.664 460.295 237.496 465.072 235.055L466.452 234.524C466.877 234.312 467.301 234.099 467.62 233.887L469.531 232.825C470.486 232.401 471.017 232.082 471.123 232.189Z" fill="#EBEBEB"/>
<path d="M427.601 265.308C427.495 265.201 428.025 264.777 428.981 264.14L430.785 262.866C431.104 262.654 431.528 262.335 431.847 262.123L433.227 261.38C438.11 258.62 443.63 257.24 449.256 257.346L451.697 257.452L454.033 257.877C454.457 257.983 454.776 257.983 455.2 258.089L456.262 258.408C457.005 258.62 457.642 258.726 458.385 258.939C460.72 259.788 463.055 260.849 465.178 262.123C468.788 264.352 470.592 266.369 470.486 266.475C470.38 266.581 468.363 264.989 464.648 263.078C462.525 262.017 460.295 261.062 457.96 260.319C457.323 260.106 456.58 260 455.943 259.788L454.882 259.575L453.82 259.469L451.591 259.151L449.256 259.045C443.842 258.939 438.534 260.106 433.758 262.548L432.378 263.078C431.953 263.291 431.635 263.503 431.21 263.715L429.299 264.777C428.238 265.095 427.601 265.414 427.601 265.308Z" fill="#EBEBEB"/>
<path d="M476.537 249.81C476.537 250.234 464.329 250.234 449.362 249.916C434.395 249.491 422.187 248.96 422.187 248.536C422.187 248.111 434.395 248.111 449.362 248.43C464.435 248.748 476.537 249.385 476.537 249.81Z" fill="#EBEBEB"/>
<path d="M448.088 275.711C447.663 275.711 447.663 263.503 447.982 248.536C448.3 233.568 448.937 221.361 449.362 221.361C449.786 221.361 449.786 233.568 449.468 248.536C449.15 263.503 448.513 275.711 448.088 275.711Z" fill="#EBEBEB"/>
<path d="M448.088 275.71C447.982 275.816 445.01 273.8 441.507 269.235C439.49 266.475 437.898 263.503 436.624 260.424C435.138 256.497 434.395 252.357 434.501 248.217C434.607 244.077 435.562 239.937 437.261 236.116C438.641 233.037 440.445 230.171 442.568 227.518C446.283 223.059 449.256 221.149 449.362 221.255C449.468 221.361 446.708 223.696 443.417 228.155C441.507 230.808 439.808 233.674 438.534 236.647C436.942 240.256 436.093 244.183 435.987 248.217C435.881 252.145 436.518 256.178 437.898 259.894C438.959 262.972 440.445 265.838 442.356 268.598C445.54 273.269 448.194 275.498 448.088 275.71Z" fill="#EBEBEB"/>
<path d="M449.999 221.361C450.105 221.255 453.077 223.272 456.58 227.836C458.597 230.49 460.189 233.462 461.463 236.647C462.949 240.574 463.692 244.714 463.586 248.854C463.48 252.994 462.525 257.134 460.826 260.955C459.446 264.034 457.642 266.9 455.519 269.554C451.803 274.012 448.831 275.923 448.725 275.817C448.619 275.71 451.273 273.375 454.669 268.917C456.686 266.263 458.279 263.397 459.552 260.425C461.145 256.815 461.994 252.888 462.1 248.854C462.206 244.926 461.569 240.893 460.189 237.177C459.128 234.099 457.536 231.233 455.731 228.473C452.546 223.802 449.893 221.467 449.999 221.361Z" fill="#EBEBEB"/>
<path d="M35.2655 236.859L36.6455 233.887C38.9808 228.473 36.5394 222.104 31.1256 219.769C25.7119 217.433 19.3428 219.875 17.0075 225.289L15.6275 228.367C12.7615 227.624 9.78922 229.004 8.51541 231.764L0.66021 249.491C-0.613606 252.569 0.766361 256.072 3.7386 257.452L22.2089 265.414C25.2873 266.688 28.7903 265.308 30.1703 262.335L37.9193 244.608C39.087 241.636 38.0255 238.345 35.2655 236.859ZM19.8736 252.569L15.0968 250.446L17.326 247.262C16.3706 245.776 16.6891 243.865 18.1752 242.804C19.6613 241.848 21.572 242.167 22.6335 243.653C23.5889 245.139 23.2704 247.05 21.7843 248.111C21.3597 248.323 20.9351 248.536 20.5105 248.642C20.2982 250.128 19.8736 252.569 19.8736 252.569ZM33.1425 235.904L17.6444 229.11L19.0244 226.138C21.0413 221.892 26.0304 220.087 30.2764 221.998C34.3102 223.909 36.2209 228.685 34.5225 232.825L33.1425 235.904Z" fill="#EBEBEB"/>
<path d="M445.859 17.975L447.239 15.0028C449.574 9.58906 447.133 3.21999 441.719 0.884661C436.305 -1.45067 429.936 0.990809 427.601 6.40453L426.221 9.48292C423.355 8.73986 420.383 10.1198 419.109 12.8798L411.466 30.607C410.192 33.6854 411.572 37.1884 414.544 38.5684L433.015 46.5297C436.093 47.8035 439.596 46.4236 440.976 43.4513L448.725 25.7241C449.786 22.858 448.619 19.4611 445.859 17.975ZM430.573 33.6854L425.796 31.5624L428.025 28.3778C427.07 26.8917 427.389 24.981 428.875 23.9195C430.361 22.858 432.271 23.2826 433.333 24.7687C434.288 26.2548 433.97 28.1655 432.484 29.2271C432.059 29.4394 431.635 29.6517 431.21 29.7578C430.892 31.2439 430.573 33.6854 430.573 33.6854ZM443.736 17.0197L428.238 10.3321L429.618 7.35989C431.635 3.11384 436.624 1.30926 440.87 3.21999C444.903 5.13071 446.814 9.90752 445.116 14.0474L443.736 17.0197Z" fill="#EBEBEB"/>
<path d="M392.252 47.0606C392.359 47.1667 379.09 58.1003 362.742 71.4754C346.289 84.8505 332.914 95.5717 332.914 95.4656C332.914 95.3594 346.077 84.4258 362.424 71.0508C378.771 57.6757 392.146 46.9544 392.252 47.0606Z" fill="#6C7A87"/>
<path d="M414.013 225.289C414.013 225.395 396.817 219.344 375.799 211.595C354.781 203.952 337.691 197.583 337.797 197.371C337.903 197.265 354.993 203.315 376.011 211.064C397.029 218.813 414.12 225.182 414.013 225.289Z" fill="#6C7A87"/>
<path d="M59.7865 78.2692C59.8926 78.163 78.2568 87.8228 100.973 100.03C123.69 112.238 141.948 122.11 141.841 122.216C141.735 122.322 123.371 112.662 100.655 100.455C77.9384 88.2474 59.6803 78.3753 59.7865 78.2692Z" fill="#6C7A87"/>
<path d="M66.3679 235.798C66.3679 235.691 81.4414 229.853 100.23 222.847C119.019 215.841 134.199 210.215 134.199 210.321C134.199 210.427 119.125 216.266 100.336 223.272C81.5475 230.278 66.474 236.01 66.3679 235.798Z" fill="#6C7A87"/>
<path d="M246.082 267.749C195.236 267.749 153.943 226.456 153.943 175.61C153.943 124.763 195.236 83.4702 246.082 83.4702C296.929 83.4702 338.221 124.763 338.221 175.61C338.115 226.456 296.929 267.643 246.082 267.749ZM246.082 84.5317C195.766 84.5317 155.004 125.294 155.004 175.61C155.004 225.925 195.766 266.687 246.082 266.687C296.398 266.687 337.16 225.925 337.16 175.61C337.054 125.294 296.398 84.5317 246.082 84.5317Z" fill="#FE5E00"/>
<path d="M362.53 174.23C362.53 174.23 362.53 173.593 362.424 172.319C362.424 171.682 362.424 170.939 362.318 169.984C362.212 169.028 362.318 167.967 362.212 166.799C362.105 165.632 361.999 164.252 361.893 162.766C361.787 161.279 361.469 159.687 361.256 157.883C360.726 154.38 359.982 150.346 358.921 145.781C357.647 140.792 356.055 135.909 354.144 131.132C351.915 125.506 349.155 119.987 346.077 114.785C338.434 102.047 328.349 90.795 316.46 81.7721C309.561 76.5707 302.13 72.1123 294.275 68.5032C285.783 64.5756 276.76 61.7095 267.525 60.0111C252.451 57.2511 236.953 57.3573 221.986 60.5418C216.678 61.7095 211.477 63.1956 206.488 65.0002C184.833 72.8554 166.044 86.9735 152.457 105.55C148.954 110.433 145.769 115.528 143.009 120.836C142.372 122.216 141.629 123.49 140.992 124.87L139.082 129.009C137.914 131.876 136.852 134.635 135.897 137.608C133.88 143.552 132.394 149.497 131.439 155.653C130.483 161.81 129.953 168.073 129.953 174.336C129.953 180.599 130.483 186.862 131.439 193.019C132.394 199.175 133.88 205.12 135.897 210.958C136.852 213.93 138.02 216.69 139.082 219.556L140.992 223.696C141.629 225.076 142.372 226.456 143.009 227.73C145.769 233.038 148.954 238.133 152.457 243.016C166.044 261.592 184.833 275.711 206.488 283.566C211.583 285.37 216.784 286.856 222.092 287.918C237.059 290.996 252.557 291.209 267.631 288.449C285.358 285.158 302.13 277.621 316.567 266.688C328.456 257.665 338.434 246.413 346.077 233.675C349.261 228.473 351.915 222.953 354.144 217.327C356.055 212.551 357.647 207.668 358.921 202.678C359.982 198.22 360.832 194.186 361.256 190.577C361.469 188.773 361.681 187.18 361.893 185.694C362.105 184.208 362.105 182.828 362.212 181.66C362.318 180.493 362.318 179.431 362.318 178.476C362.318 177.521 362.318 176.778 362.424 176.141C362.424 174.973 362.53 174.336 362.53 174.23C362.53 174.23 362.53 174.867 362.53 176.141C362.53 176.778 362.53 177.521 362.53 178.476C362.53 179.431 362.53 180.493 362.424 181.66C362.318 182.828 362.212 184.208 362.105 185.694C361.999 187.18 361.681 188.879 361.575 190.577C361.044 194.08 360.301 198.114 359.239 202.678C357.966 207.668 356.373 212.551 354.463 217.327C352.233 223.06 349.473 228.579 346.395 233.781C338.752 246.625 328.668 257.877 316.779 267.006C302.342 278.046 285.464 285.583 267.631 288.873C257.759 290.784 247.568 291.315 237.484 290.572C232.176 290.253 226.975 289.51 221.88 288.449C216.572 287.281 211.371 285.795 206.275 283.99C184.514 276.135 165.619 261.911 151.926 243.334C148.317 238.451 145.132 233.356 142.372 228.049C141.735 226.669 140.886 225.395 140.355 223.909C139.825 222.423 139.082 221.149 138.445 219.769C137.277 216.903 136.109 214.037 135.26 211.171C133.243 205.332 131.757 199.282 130.802 193.125C128.785 180.705 128.785 167.967 130.802 155.547C131.757 149.39 133.243 143.34 135.26 137.502C136.215 134.529 137.383 131.769 138.445 128.903C139.082 127.523 139.718 126.143 140.355 124.763C140.992 123.383 141.735 122.003 142.372 120.623C145.132 115.316 148.317 110.114 151.926 105.338C165.619 86.6551 184.514 72.5369 206.275 64.6817C211.371 62.8772 216.572 61.2849 221.88 60.2234C236.953 57.145 252.451 56.9327 267.631 59.6926C276.866 61.391 285.889 64.2571 294.487 68.1847C302.448 71.7939 309.879 76.2522 316.779 81.5598C328.668 90.6888 338.752 101.941 346.395 114.785C349.58 120.093 352.233 125.506 354.463 131.239C356.373 136.015 357.966 140.898 359.239 145.887C360.301 150.346 361.044 154.486 361.575 157.989C361.787 159.793 361.999 161.386 362.105 162.872C362.212 164.358 362.318 165.738 362.424 167.012C362.53 168.285 362.53 169.241 362.53 170.196C362.53 171.152 362.53 171.895 362.53 172.531C362.53 173.593 362.53 174.23 362.53 174.23Z" fill="#6C7A87"/>
<path d="M247.462 306.707V305.645C321.556 305.645 381.531 245.563 381.531 171.47C381.531 97.3761 321.45 37.4006 247.356 37.4006C173.262 37.4006 113.287 97.4823 113.287 171.47H112.225C112.225 96.9515 172.838 36.3391 247.356 36.3391C321.98 36.976 381.956 98.013 381.319 172.744C380.788 246.519 321.131 306.07 247.462 306.707Z" fill="#FE5E00"/>
<path d="M246.082 293.438V288.13C308.924 288.13 359.876 237.177 359.876 174.336C359.876 111.494 308.924 60.5417 246.082 60.5417V55.2341C311.896 55.2341 365.184 108.522 365.29 174.336C365.396 240.15 311.896 293.438 246.082 293.438Z" fill="#FE5E00"/>
<path d="M384.716 171.576H379.408C378.771 98.6502 319.114 40.1608 246.294 40.7977C174.324 41.4346 116.153 99.6056 115.516 171.576H110.208C110.208 95.8903 171.776 34.3225 247.462 34.3225C323.254 34.4287 384.609 95.7841 384.716 171.576Z" fill="#FE5E00"/>
<path d="M248.417 327.194C164.027 327.194 95.4534 258.62 95.4534 174.23C95.4534 89.8396 164.133 21.2659 248.417 21.2659V26.5734C166.999 26.5734 100.761 92.8119 100.761 174.23C100.761 255.648 166.999 321.886 248.417 321.886C329.835 321.886 396.074 255.648 396.074 174.23H401.382C401.382 258.514 332.808 327.194 248.417 327.194Z" fill="#FE5E00"/>
<path d="M246.082 345.133H243.428V344.072H246.082V345.133Z" fill="#FE5E00"/>
<path d="M232.601 344.497C230.796 344.39 228.992 344.178 227.293 343.966L227.399 342.904C229.204 343.117 231.009 343.223 232.707 343.435L232.601 344.497ZM216.678 342.586C214.874 342.267 213.069 341.949 211.371 341.524L211.583 340.463C213.281 340.781 215.086 341.206 216.784 341.524L216.678 342.586ZM200.968 338.977C199.269 338.552 197.571 338.021 195.766 337.491L196.085 336.429C197.783 336.96 199.482 337.491 201.18 337.915L200.968 338.977ZM185.576 333.988C183.877 333.351 182.179 332.714 180.587 331.971L181.011 331.015C182.604 331.652 184.302 332.395 186 333.032L185.576 333.988ZM170.715 327.512C169.122 326.663 167.53 325.92 165.938 325.071L166.469 324.116C168.061 324.965 169.653 325.814 171.245 326.557L170.715 327.512ZM156.703 319.657C155.217 318.702 153.624 317.746 152.138 316.791L152.775 315.942C154.261 316.897 155.747 317.959 157.233 318.808L156.703 319.657ZM143.328 310.528C141.948 309.467 140.461 308.299 139.082 307.237L139.718 306.388C141.098 307.45 142.478 308.617 143.858 309.679L143.328 310.528ZM131.014 300.125C129.74 298.958 128.36 297.684 127.086 296.41L127.829 295.667C129.103 296.941 130.377 298.108 131.651 299.382L131.014 300.125ZM119.656 288.555C118.488 287.175 117.32 285.901 116.153 284.521L117.002 283.884C118.17 285.264 119.337 286.644 120.505 287.918L119.656 288.555ZM109.571 276.135C108.51 274.649 107.448 273.163 106.493 271.783L107.342 271.146C108.298 272.632 109.359 274.012 110.421 275.498L109.571 276.135ZM100.549 262.654C99.5932 261.168 98.744 259.576 97.8948 257.983L98.8502 257.453C99.6994 259.045 100.655 260.531 101.504 262.123L100.549 262.654ZM93.0118 248.43C92.2688 246.837 91.5257 245.139 90.7827 243.547L91.738 243.122C92.4811 244.714 93.2241 246.413 93.9672 248.005L93.0118 248.43ZM86.7489 233.568C86.112 231.87 85.5812 230.172 84.9443 228.473L86.0058 228.155C86.5366 229.853 87.1735 231.552 87.8104 233.25L86.7489 233.568ZM81.9721 218.177C81.5475 216.478 81.1229 214.674 80.6983 212.975L81.7598 212.763C82.1844 214.461 82.609 216.266 83.0336 217.964L81.9721 218.177ZM78.6814 202.466C78.363 200.768 78.1507 198.963 77.9384 197.159L78.9999 197.052C79.2122 198.857 79.4245 200.555 79.7429 202.36L78.6814 202.466ZM76.8768 186.331C76.7707 184.527 76.6645 182.722 76.6645 180.917H77.726C77.726 182.722 77.8322 184.527 77.9384 186.225L76.8768 186.331ZM77.6199 170.302H76.5584C76.6645 168.498 76.6645 166.693 76.7707 164.889L77.8322 164.995C77.8322 166.693 77.726 168.498 77.6199 170.302ZM78.8937 154.38L77.8322 154.273C78.0445 152.469 78.2568 150.664 78.5753 148.966L79.6368 149.178C79.4245 150.77 79.106 152.575 78.8937 154.38ZM81.6536 138.563L80.5921 138.351C81.0167 136.652 81.4413 134.848 81.8659 133.149L82.9275 133.362C82.5029 135.06 82.0783 136.865 81.6536 138.563ZM85.8997 123.065L84.9443 122.746C85.4751 121.048 86.112 119.35 86.7489 117.651L87.7043 117.97C87.0674 119.668 86.5366 121.367 85.8997 123.065ZM91.6319 108.098L90.6765 107.673C91.4196 106.081 92.1626 104.382 92.9057 102.79L93.861 103.215C93.118 104.807 92.3749 106.505 91.6319 108.098ZM98.744 93.661L97.7886 93.1303C98.6379 91.538 99.5932 90.0519 100.442 88.4596L101.292 88.9904C100.549 90.5826 99.6994 92.1749 98.744 93.661ZM107.236 80.0737L106.387 79.4368C107.448 77.9506 108.51 76.4645 109.465 75.0845L110.315 75.7215C109.359 77.2076 108.298 78.5875 107.236 80.0737ZM117.002 67.3355L116.153 66.5924C117.32 65.2125 118.488 63.8325 119.656 62.5587L120.399 63.3018C119.337 64.5756 118.17 65.9555 117.002 67.3355ZM127.829 55.5527L127.086 54.8097C128.36 53.5358 129.634 52.262 131.014 51.0944L131.757 51.8374C130.377 53.1112 129.103 54.2789 127.829 55.5527ZM139.825 44.8314L139.188 43.9822C140.568 42.8145 141.948 41.753 143.434 40.6915L144.071 41.5407C142.585 42.6022 141.205 43.7699 139.825 44.8314ZM152.669 35.2778L152.032 34.4286C153.518 33.4732 155.004 32.5179 156.49 31.5625L157.021 32.4117C155.641 33.3671 154.155 34.3224 152.669 35.2778ZM166.469 27.1042L165.938 26.1488C167.53 25.2996 169.122 24.4504 170.715 23.7073L171.139 24.6627C169.547 25.4057 167.955 26.2549 166.469 27.1042ZM180.905 20.2043L180.481 19.249C182.179 18.5059 183.771 17.869 185.47 17.2321L185.894 18.1874C184.196 18.8243 182.497 19.5674 180.905 20.2043ZM195.872 14.7906L195.554 13.8352C197.252 13.3045 198.951 12.7737 200.755 12.3491L201.074 13.4106C199.375 13.7291 197.571 14.1537 195.872 14.7906ZM211.371 10.6507L211.158 9.58918C212.857 9.27073 214.661 8.84612 216.466 8.52767L216.678 9.58918C214.98 10.0138 213.175 10.3322 211.371 10.6507ZM227.187 8.20921L227.081 7.1477C228.886 6.9354 230.69 6.82925 232.389 6.61694L232.495 7.67846C230.796 7.78461 228.992 7.99691 227.187 8.20921Z" fill="#FE5E00"/>
<path d="M243.428 7.14769V6.08618H246.082V7.14769H243.428Z" fill="#FE5E00"/>
<path d="M186.531 165.419L290.241 123.914C297.035 121.154 304.784 124.551 307.438 131.345L339.389 211.383C342.149 218.177 338.752 225.926 331.959 228.579L228.249 270.085C221.455 272.845 213.706 269.448 211.052 262.654L179.101 182.616C176.447 175.928 179.738 168.179 186.531 165.419Z" fill="#FE5E00"/>
<path d="M297.565 174.973L283.872 180.386L254.149 106.081C247.144 88.5655 227.293 79.9673 209.778 86.9733C192.263 93.9793 183.665 113.83 190.671 131.345L220.393 205.65L206.7 211.064L176.977 136.758C166.999 111.707 179.207 83.258 204.258 73.2798C229.31 63.3015 257.759 75.5089 267.737 100.561L297.565 174.973Z" fill="#E0E0E0"/>
<g opacity="0.3">
<path d="M186.956 165.313L289.71 124.233C296.716 121.367 304.784 124.87 307.544 131.876L339.177 210.958C342.043 217.964 338.54 226.032 331.534 228.792L228.779 269.872C221.773 272.738 213.706 269.235 210.946 262.229L179.313 183.147C176.553 176.141 179.95 168.073 186.956 165.313Z" fill="black"/>
</g>
<path d="M180.587 167.861L275.167 130.071C281.961 127.417 289.604 130.708 292.364 137.395L324.422 217.433C327.075 224.227 323.785 231.87 317.097 234.63L222.516 272.42C215.723 275.073 208.08 271.783 205.32 265.095L173.262 185.057C170.608 178.157 173.899 170.514 180.587 167.861Z" fill="#FE5E00"/>
<path d="M261.156 139.306C261.262 139.518 245.339 146.206 225.701 154.38C206.063 162.553 190.034 169.028 190.034 168.816C190.034 168.604 205.851 161.916 225.489 153.743C245.127 145.569 261.049 139.094 261.156 139.306Z" fill="white"/>
<g opacity="0.3">
<path d="M261.686 185.376C258.502 177.308 249.373 173.381 241.305 176.565C233.238 179.75 229.31 188.879 232.495 196.946C235.042 203.528 241.73 207.562 248.736 206.818L255.848 224.652C256.697 226.881 259.245 227.943 261.474 226.987C263.703 226.138 264.765 223.59 263.915 221.467L256.803 203.634C262.217 199.388 264.234 191.957 261.686 185.376Z" fill="black"/>
</g>
<path d="M260.519 205.12C262.005 203.634 263.172 201.935 264.234 200.131C265.295 198.114 266.038 195.991 266.357 193.762C267.312 188.242 265.508 182.722 261.58 178.794C259.988 177.202 258.183 175.822 256.166 174.867C254.256 174.018 252.239 173.381 250.222 172.956C250.753 172.956 251.39 172.956 251.92 173.062C253.406 173.275 254.893 173.699 256.379 174.336C258.502 175.291 260.412 176.671 262.005 178.264C266.145 182.297 268.055 188.136 266.994 193.868C266.675 196.097 265.826 198.326 264.658 200.343C263.915 201.723 262.96 202.891 261.792 203.952C261.474 204.483 261.049 204.801 260.519 205.12Z" fill="#6C7A87"/>
<path d="M235.148 205.12C234.83 204.908 234.511 204.695 234.193 204.483C233.344 203.74 232.601 202.997 231.964 202.148C227.399 196.416 226.869 188.454 230.69 182.085C231.221 181.13 231.858 180.281 232.601 179.538C232.813 179.219 233.132 179.007 233.45 178.794C233.556 178.901 232.388 180.068 231.115 182.404C227.718 188.56 228.142 196.203 232.388 201.935C233.875 203.952 235.148 205.014 235.148 205.12Z" fill="white"/>
<path d="M243.64 209.685C243.64 209.897 242.579 209.897 241.411 209.685C240.244 209.472 239.288 209.154 239.288 208.941C239.288 208.729 240.35 208.729 241.517 208.941C242.685 209.154 243.64 209.578 243.64 209.685Z" fill="white"/>
<path d="M190.671 74.6599C189.928 75.1907 189.185 75.6153 188.336 75.9337C186.213 77.1014 184.196 78.4813 182.391 80.0736C167.742 92.0687 162.753 112.237 169.865 129.752C170.502 131.345 170.927 132.194 170.821 132.194C170.715 131.982 170.608 131.769 170.502 131.557C170.29 131.132 169.972 130.602 169.653 129.752C168.592 127.523 167.849 125.188 167.212 122.853C163.072 106.718 168.91 89.7334 182.073 79.5429C183.984 78.0567 186 76.6768 188.23 75.6153C188.973 75.1907 189.61 74.9784 190.034 74.7661C190.246 74.7661 190.459 74.6599 190.671 74.6599Z" fill="white"/>
</g>
</svg>