<?xml version="1.0" encoding="UTF-8" standalone="no"?>
<svg
   width="287.47433"
   height="292.50049"
   viewBox="0 0 287.47433 292.50049"
   fill="none"
   version="1.1"
   id="svg2705"
   sodipodi:docname="logo.svg"
   inkscape:version="1.2.2 (b0a8486541, 2022-12-01)"
   xmlns:inkscape="http://www.inkscape.org/namespaces/inkscape"
   xmlns:sodipodi="http://sodipodi.sourceforge.net/DTD/sodipodi-0.dtd"
   xmlns="http://www.w3.org/2000/svg"
   xmlns:svg="http://www.w3.org/2000/svg">
  <defs
     id="defs2709" />
  <sodipodi:namedview
     id="namedview2707"
     pagecolor="#ffffff"
     bordercolor="#000000"
     borderopacity="0.25"
     inkscape:showpageshadow="2"
     inkscape:pageopacity="0.0"
     inkscape:pagecheckerboard="0"
     inkscape:deskcolor="#d1d1d1"
     showgrid="false"
     inkscape:zoom="0.4609375"
     inkscape:cx="144.27119"
     inkscape:cy="147.52542"
     inkscape:window-width="1920"
     inkscape:window-height="1148"
     inkscape:window-x="1920"
     inkscape:window-y="0"
     inkscape:window-maximized="1"
     inkscape:current-layer="svg2705" />
  <path
     d="m 24.974336,57.579473 c 0,0 -29,40 -24.5,58.000997 -0.155,-0.698 19,-21.000997 19,-21.000997 1,5.499997 47.5,19.000997 47.5,19.000997 6.174,3.935 8.302,6.761 9.5,13 v 24 c 16.063,9.994 30.818004,13.31 66.500004,15.5 37.913,-1.616 53.572,-4.974 67.5,-15.5 0,0 -1.5,-18.501 0,-25.001 1.5,-6.5 4.829,-10.217 10,-11.999 19.293,-4.414 28.816,-9.243 47,-18.500997 l 20,20.500997 c -3.039,-22.539997 -8.262,-35.015997 -24,-56.999997 -12.494,-14.278 -20.505,-21.766 -37,-34 -17.932,-10.596 -27.882,-14.6409998 -45.5,-19.4999998 -30.58,-6.262 -47.438,-6.243 -77,0 -18.113004,5.4609998 -27.141004,9.5809998 -40.500004,19.4999998 0,0 -50.5,-29.0009998 -57,-24.00099984 -6.5,5.00000004 18.5,56.99999984 18.5,56.99999984 z"
     fill="#ffffff"
     id="path2701" />
  <path
     d="m 59.500336,212.50047 c -23.228,-10.168 -35.814,-17.849 -57.5,-35 5.214,21.587 10.076,32.953 22,52 12.706,17.195 20.513,24.868 35.5,35.5 16.208,11.124 25.928,15.987 44.500004,22 16.684,4.01 25.987,5.288 42.5,5.5 16.837,-0.843 25.574,-2.678 40,-6 15.912,-6.341 24.018,-10.339 37.5,-18 22.355,12.62 50,27 54,21 4,-6 -18,-54.5 -18,-54.5 14.673,-21.015 20.675,-35.167 26.5,-59 -20.086,15.757 -33.135,24.951 -58,36.5 -30.758,12.132 -48.672,16.028 -82,17 -38.827,-0.677 -57.775004,-4.519 -87.000004,-17 z"
     fill="#ffffff"
     id="path2703" />
</svg>
