<svg width="100" height="100" viewBox="0 0 100 100" fill="none" xmlns="http://www.w3.org/2000/svg">
<g clip-path="url(#clip0_361_1459)">
<rect width="100" height="100" rx="20" fill="#FE5E00"/>
<rect width="170" height="170" fill="#FE5E00"/>
<path d="M27.8723 32.7597C25.4582 36.0095 23.4114 41.2328 23.0002 43.5646C22.9712 43.4345 26.8489 39.6619 26.8489 39.6619C29.0866 40.8597 35.6873 43.2063 35.6873 43.2063C36.836 43.9405 37.232 44.4676 37.455 45.6314V50.1085C40.4438 51.9729 43.1892 52.5916 49.8288 53C56.8833 52.6985 59.7969 52.0722 62.3886 50.1085C62.3886 50.1085 62.1095 46.6574 62.3886 45.4448C62.6677 44.2323 63.2871 43.5388 64.2493 43.2063C67.8391 42.383 69.6111 41.4822 72.9947 39.7552L77 43.4713C76.4418 40.9529 75.1788 37.0473 72.2504 32.9462C69.9255 30.2829 68.4349 28.8859 65.3657 26.6037C62.029 24.6272 60.1824 23.783 56.9043 22.8766C51.6012 21.5521 46.8564 21.8319 42.5768 23.0258C38.9484 24.038 37.3405 24.7013 34.8548 26.5515C34.8548 26.5515 25.6395 21.1938 24.43 22.1265C23.2205 23.0593 27.8723 32.7597 27.8723 32.7597Z" fill="white"/>
<path d="M33.9831 62.8886C29.6288 60.9696 27.0652 59.6127 23 56.3758C23.7619 60.0404 25.8059 64.0808 27.3148 66.0971C29.6153 69.3426 31.1736 70.8483 33.9831 72.8549C36.8273 74.8864 38.8434 75.8141 42.3248 76.949C45.4523 77.7058 47.1767 78.0758 50.2917 77.987C53.5864 77.8931 55.1896 77.7052 57.7899 76.8547C60.6476 75.9199 62.4129 75.1682 64.8286 73.6122C69.0192 75.9939 74.1923 78.5532 74.9421 77.4209C75.6919 76.2885 71.7412 67.2754 71.7412 67.2754C73.9339 64.4566 76.1638 60.4162 77 56C73.2347 58.9737 70.3242 60.709 65.663 62.8886C59.8973 65.1784 56.5392 65.9135 50.2917 66.0971C43.0134 65.9692 39.4614 65.2441 33.9831 62.8886Z" fill="white"/>
</g>
<defs>
<clipPath id="clip0_361_1459">
<rect width="100" height="100" rx="20" fill="white"/>
</clipPath>
</defs>
</svg>
